<svg xmlns="http://www.w3.org/2000/svg" fill="#fff" viewBox="0 0 760.62 219.61"><title>Asset 1</title><g id="Layer_2" data-name="Layer 2"><g id="Layer_1-2" data-name="Layer 1"><path d="M282.39,125.88c1.76.33.72,1.52.53,2.2a88.8,88.8,0,0,1-3.45,11.07c-1.47,3.38-.64,6.8-1.11,10.17-.16,1.12-.23,2.24-.37,3.36,0,.35-.32.72-.26,1,1.23,5.83-1.19,11.15-2.39,16.61-.93,4.24-2,4.46-5.3,1.8-3.48-2.78-6.65-5.83-7.72-10.44-2.36,0-2,2-2.72,3.28H257c1.92-5.64-.24-10.79-.88-16.07a5.22,5.22,0,0,1,.23-2.11,90.32,90.32,0,0,0,3.54-22.33,8.46,8.46,0,0,0-.43-3.16c-.59-1.66-.66-3,1.26-3.62-.88-3.73.57-7.14.87-10.65s.94-7.08.1-10.65c-.14-.55.19-1.2.17-1.8,0-1.08-.27-2.16-.21-3.22a24.91,24.91,0,0,1,.57-3.63c.14-.68.75-1.48.54-1.95-1.3-3,.1-5.63.64-8.41a15.11,15.11,0,0,0-.07-3.55c0-.52-.37-1.15-.18-1.54,2-3.94,1-8.23,1.47-12.35.41-3.66.67-7.35.86-11a26,26,0,0,0-.51-4.13c1.33-.66,2.55-1.79.95-3.84a1.79,1.79,0,0,1-.06-1.28,9.38,9.38,0,0,0-1.1-7.6c-2.19-3.28-4.5-6.49-6.86-9.65-1.41-1.9-1.29-2.29,1-3.08,2.45-.86,4.8-2.05,7.27-2.85a18.26,18.26,0,0,1,6.19-1.28,92.11,92.11,0,0,1,12.83,1.45c3.34.63,5.49,2.74,7.59,5.76,3.18,4.6,3.61,9.65,4.7,14.68A29.69,29.69,0,0,0,298.59,40q2.49,7.53,4.93,15.07c.12.38-.17,1,0,1.24,2.63,2.61,1.28,5.68,1.21,7.25l3.62,9.6a13,13,0,0,0,2.21-2.39q2.31-4.43,4.28-9c.33-.79-.27-2,.07-2.78.84-1.9,2-3.68,3.2-5.89.06-1-.22-2.67.32-4.07,3-7.67,6.14-15.25,9.18-22.89a9,9,0,0,0,.24-2.46c.12-1.64-.12-3.42.44-4.89,2-5.12,4.73-5.72,9.07-2.34a3.88,3.88,0,0,0,2.34.71c4.25-.14,8.49-.51,12.74-.57a4.74,4.74,0,0,1,4.41,3.11,30.06,30.06,0,0,1,2.22,7.71,66.78,66.78,0,0,1-.79,22.29c-.1.43-.31,1-.12,1.31,1.61,2.36.13,4.45-.45,6.64-.37,1.37-.47,2.82-.84,4.19A14.51,14.51,0,0,1,355.85,64a7,7,0,0,0-1,2.56,53.21,53.21,0,0,0,.57,5.75c2.22.57,3.07,2.62,1.64,5-1,1.67-3,3.06-1.44,5.43a.56.56,0,0,1-.07.51c-2.89,3.43-.69,7.67-1.84,11.42s-1.85,7.69-2.69,11.55a3.51,3.51,0,0,0,.1,1.82c.55,1.67,1.16,3.28-1.52,3.69,1.15,3,.66,5.69-.11,8.43-.39,1.38.24,3,0,4.47-.72,4.71-1.77,9.38-2.42,14.1a79.78,79.78,0,0,0-.52,9.42c0,2.15.08,2.15-1.79,3.25a9.32,9.32,0,0,1,1,2.62c.58,10.15,1.15,20.29,1.51,30.45.08,2.19-.83,4.4-1,6.62a16.92,16.92,0,0,0,.44,4.16c.22,1.31.56,2.6.86,4-1.79.64-2.92.72-3.84-1.19-5.43-11.26-11-22.47-16.51-33.68-.71-1.46-1.42-2.78-.66-4.57.34-.82-.26-2.07-.53-3.09-.51-1.89-1.46-3.65-.58-5.75.25-.6-.45-1.59-.76-2.57,2-.93,3-2.25,1.32-4.48-.28-.37.16-1.33.32-2,.58-2.36,1.19-4.7,1.77-7.06a2.5,2.5,0,0,0,.16-1.32c-1.43-3.64.58-6.77,1.42-10.06.3-1.16.62-2.16-.78-3-1-.61-1-1.65-.25-2.8a13.75,13.75,0,0,0,1.81-3.88c3.16-10.6,5.39-21.3,3-32.42a5.7,5.7,0,0,1,0-.93L335.87,79,333,77.72c-.62,2.19-1.09,4.17-1.76,6.09-1.4,4.07-2.91,8.11-4.38,12.16-.12.33-.37.69-.31,1,1,5-2.78,8.49-4,12.77-.13.44-1.11.72-1.75.9-1.57.44-2,1.25-1.3,2.8s1.09,3.12,1.62,4.69l-.53.52-3.4-.72c-.13,1.16-.57,2.32-.28,3.23.47,1.46.1,2.11-1.2,2.67-.34.15-.73,1.15-.58,1.34,1.39,1.7-.07,3-.47,4.48-1.61,5.8-3.27,11.59-4.86,17.4-.35,1.26-.3,2.56-1.83,3.32-.66.33-.81,1.69-1.19,2.6-2,.75-3,0-3.43-2-1.25-5.52-2.71-11-3.84-16.56-.3-1.43.32-3,.57-5l-3.89-.92c-.23-2.2.88-3.39,3-4-3.63-3.61-4.27-8.3-5.19-12.83-.74-3.68-.71-7.56-1.78-11.12-.61-2-.21-4-.81-5.89a34.39,34.39,0,0,0-2.27-4.68c.68-4.53-1.89-8.64-2.66-13.14l-.54.09c-.19,4.72-.09,9.48-.65,14.16-.7,5.87-2,11.68-2.94,17.53-.12.72-.27,1.72.1,2.19,3.53,4.47,2.65,9,.54,13.7-.21.47-.37,1-.55,1.45l-1.6.3-.57.34.35.16.14-.57ZM271.9,119.7l-.44-.43c-.37.22-.84.36-1.06.67a3.64,3.64,0,0,0-.25,1.24l.4.18Z"/><path d="M174.58,138.15c1.95.44,1,1.79.8,2.79-1,4-2.16,8-3.08,12a14,14,0,0,0,.11,3.87c.09,1.29.31,2.58.39,3.87.42,6.51.08,12.93-2.76,19-1.21,2.57-2.13,2.77-4.25,1-4-3.35-8.17-6.55-10.42-12.31l-3.23,3.21-2.52-.26c2.09-4.64-.43-8.45-1.15-12.51a10.08,10.08,0,0,1,.08-4.41,75.81,75.81,0,0,0,2.62-19.74c0-1.37-.63-2.76-1-4.27l1.76-1.17c-.58-3.56,1-6.8,1.54-10.19.54-3.14.6-6.36.91-9.54.06-.68.34-1.35.39-2,.07-1,0-2,0-3,0-.35-.15-.78,0-1,2.44-4,.86-9.2,3.65-13.15.24-.34.48-1,.33-1.25-1.3-2.38.48-4.27.86-6.39.74-4.09,1.21-8.23,1.74-12.36.31-2.5.59-5,.73-7.52a26.24,26.24,0,0,0-.36-3.92c1.45-.65,2.47-1.86,1.05-3.9a1.78,1.78,0,0,1,0-1.27,9.55,9.55,0,0,0-.69-7.45c-2-3.5-4.13-6.94-6.31-10.34-1.21-1.91-1.12-2.28,1-3,1.95-.66,3.9-1.36,5.78-2.21,7.93-3.59,15.43-1.51,22.8,1.74a6.56,6.56,0,0,1,2.45,2.43c3.18,4.74,4.36,10.11,5,15.7.17,1.62,1,3.16,1.43,4.77,1.38,5,2.72,10,4.06,15,.08.32-.07.72.05,1,1.62,3.67,1.74,5.05.6,8.78,2.68,1.87,2.33,4.94,2.8,8.37,1.06-.92,2-1.41,2.49-2.21,1.71-3,3.32-6.17,4.79-9.35.37-.78-.19-2,.16-2.79.82-1.82,1.95-3.5,3.27-5.8-.75-2,.39-4.4,1.5-6.91,1.21-2.74,1.88-5.71,3.06-8.46,1.65-3.89,3.6-7.65,5.33-11.5a9.45,9.45,0,0,0,.31-2.47c.23-1.64.14-3.42.79-4.87,2.18-4.84,5-5.32,9-1.93a3.9,3.9,0,0,0,2.32.72c4.24,0,8.5-.26,12.74-.12a4.84,4.84,0,0,1,4.3,3.64,20.2,20.2,0,0,1,1.39,7.07c-.4,7.17-1.24,14.31-1.91,21.46-.05.54-.4,1.21-.19,1.57,1.46,2.52-.08,4.67-.67,7-.34,1.29-.51,2.63-.76,3.94-.09.52,0,1.36-.33,1.51-2.46,1.31-1.81,3-1.07,5,.33.91-.37,2.2-.51,2.92,1,1.16,2.22,2,2.55,3.09.25.88-.41,2.19-1,3.1-.94,1.5-2.48,2.75-1.1,4.75a.52.52,0,0,1-.06.51c-2.91,3.19-.86,7.31-2.06,10.86s-2,7.46-3,11.21a3.52,3.52,0,0,0,0,2.08c.76,1.85.35,3.13-1.07,3.66a42.35,42.35,0,0,1,0,5.07c-.76,6.21-1.7,12.39-2.45,18.6-.55,4.47-.84,9-1.38,13.42a6.66,6.66,0,0,1-1.67,3.39,14,14,0,0,1,.51,3.08c-.7,11.58-1.26,23.19-3.73,34.58-.43,2-1.25,3.93-1.83,5.91a10.49,10.49,0,0,0-.44,2.6c0,1.34.18,2.69.15,4,0,1,.67,2.52-1.24,2.7-1.72.17-1.74-1.14-2-2.3-.71-3.89-1.3-7.81-2.18-11.67-2.06-9-4.28-18-6.35-27.06a16.17,16.17,0,0,1,0-3.61c0-1.14,0-2.29,0-3.43-.05-2.11-.07-4.22-.21-6.32a18,18,0,0,0-.62-2.67c1.86-.95,2.64-2.31,1.25-4.41-.3-.46,0-1.36.1-2,.39-2.21.85-4.41,1.24-6.62a3.33,3.33,0,0,0,.09-1.86c-1.78-3.4.21-6.43.83-9.59.24-1.25.62-2.36-.86-3.29-.46-.29-.48-1.72-.27-2.51.34-1.27,1.22-2.4,1.57-3.68,2.11-7.72,4.55-15.38,4.45-23.51,0-2.16-.22-4.31-.41-6.46-.16-1.69-.91-3.55,2.33-3.88l-.54-.57L226,93c-1,3.14-1.86,6.07-2.92,8.92s-2.42,5.8-3.64,8.69c-.17.4-.54.84-.49,1.21.71,4.87-3,8.27-4.18,12.48-.11.36-.81.62-1.28.79-2.51.9-2.48.87-1.39,3.38.56,1.28.93,2.64,1.6,4.61l-4.07-.81v5c-1.21.58-2.61,1.34-1.12,3.27.21.28-.14,1-.26,1.52-1.31,6.06-2.64,12.11-3.93,18.17-.27,1.27-.09,2.6-1.62,3.41-.59.31-.7,1.53-1.06,2.4-1.8.59-2.73-.1-3.32-1.93-1.67-5.23-3.54-10.39-5.21-15.62-.55-1.72-1.06-3.58.64-5.47l-4.63-1.27a2.8,2.8,0,0,1,2.19-3.55c-1.2-2.4-2.86-4.63-3.44-7.12-1.28-5.39-1.71-11-3.1-16.33-.53-2,0-4-.55-5.86a32.2,32.2,0,0,0-1.73-4.15,27.16,27.16,0,0,0,0-4.15,74.72,74.72,0,0,0-2.06-9.24c-1.14,10.89-2.59,21.67-6.32,32,3.72,4.86,3.89,9.71.55,14.9l-1.16.58h-.82l.11.34.65-.41Zm-10.75-5.88-.82-.77-1.23,1.43.81.75Z"/><path d="M625.84,196l-3.82-.84a17.24,17.24,0,0,1-1.83,2.38,30.9,30.9,0,0,1-5.49,4.66c-3.35,1.91-5.31.71-5.9-3.11a5.62,5.62,0,0,0-.32-1.77c-2.5-4.79-2.28-10-2.82-15.16-.42-4.08-.33-8.1-.41-12.14-.13-7.39-.17-14.8,0-22.19a66.42,66.42,0,0,1,1.11-8.13c.06-.44.29-1,.1-1.32-1.66-2.53.2-4.5.91-6.69a17.66,17.66,0,0,0,.51-3.57c0-.35-.19-.73-.13-1.06.44-2.28.84-4.57,1.42-6.8a21.13,21.13,0,0,1,1.64-4.28c3.91-7.64,5.21-16.21,8.6-24,.83-1.89,1.79-3.73,2.58-5.64a10.34,10.34,0,0,0,.48-2.5c0-.34-.16-.74-.05-1,1.35-3.82,2.74-7.63,4.2-11.67-2.35-1.06,0-3.06.12-4.59a36.07,36.07,0,0,1,.77-6.29c.73-2.48.29-4.74.36-7.1.13-4.45,1.88-8.84.36-13.36a3.37,3.37,0,0,1,.06-1.54c2.45-1,4.54-1.8,6.64-2.59a1.68,1.68,0,0,1,1,0c5.24,1.84,10.52.45,15.79.24a5.2,5.2,0,0,1,1.34-.11c6.89,1.64,13.91-.63,20.84.74,2.2.44,4.64-.06,6.92-.42,1.64-.26,2.72-.1,3.48,1.54,1.88,4.07,3.92,8.07,5.78,12.16a11,11,0,0,1,.45,7.94c-1.49,4.7-1.35,9.65-2.46,14.39-.7,3-2,5.91-2.62,8.94a40.83,40.83,0,0,0-1,8.24c0,2.95-.37,5.58-2.27,8a8.62,8.62,0,0,0-1.73,6.87,3.89,3.89,0,0,1-2,4,18.46,18.46,0,0,1-9.77,3.37l-2.5,3.38c1.5,2.19,3.15,4.57,4.78,7s1.62,4.75,1,7.46c-1.75,8.17-3.3,16.39-4.88,24.61-.49,2.53-.84,5.1-1.31,8,3.16,1.25,2.59,3.76,1.48,6.48-1.46,3.58-2.69,7.26-4.28,10.77-1,2.3-2.47,4.42-5.32,4.94a3.21,3.21,0,0,0-1.44,1.14,13.41,13.41,0,0,0-2.18,2.73c-2.18,4.36-5.47,5.31-9.94,3.8-2.8-.94-5.74-1.46-8.61-2.16-.35-.08-.79-.3-1-.18-2.46,1.31-5.92.51-7.56,3.51A27.9,27.9,0,0,0,625.84,196Zm12.54-85.1c.51,0,1.16.14,1.5-.12q7.68-5.7,15.27-11.54c.53-.41,1.23-1.19,1.17-1.71-.4-3.22,1.61-5.57,2.76-8.23a9.8,9.8,0,0,0,.8-1.67c.79-4.12,1.34-8.3,2.33-12.38,1.16-4.8,2.7-9.52,4-14.28.43-1.53.77-3.08,1.07-4.32-3.89-3.4-8.28.15-12.1-1.63-1.92,1.57-3.49,3.65-2.62,6a4.5,4.5,0,0,1-.46,3.94c-1.21,2.57-2.82,5-2,8.12a3,3,0,0,1-.6,2.27,13.1,13.1,0,0,0-2.81,6.74,44,44,0,0,1-3.86,12,8.73,8.73,0,0,0-.9,5.35c.76,4.5-1.19,8-3.54,11.46l.36.11h0Zm11.71,13.39-.85-1.08-10,5.41c2,2,4.29,2.91,4.41,5.73-.87.35-1.68.69-2.5,1a28.34,28.34,0,0,0-10.65,7.15,4.41,4.41,0,0,0-1.43,4.1,23.07,23.07,0,0,1-1.24,12.16,60.32,60.32,0,0,0-1.62,6.25c-.19.84-.27,1.7-.42,2.66,5.2-1.06,5.2-1.06,7.61,2.39a70.76,70.76,0,0,0,6.3-3.24c.72-.46,1.51-2,1.24-2.61a6.49,6.49,0,0,1,.16-5.42c.2-.48.44-1.23.22-1.55-1.84-2.65.21-4.68,1-6.91.21-.57.78-1.25.62-1.66-1.22-3,.58-5.35,1.61-7.9a56,56,0,0,0,2.37-7,6.74,6.74,0,0,0-.37-3.1,24.39,24.39,0,0,0-1.13-2.94l1.22.91Z"/><path d="M527.73,99.45c1.8,4.44.33,8.49-1.66,12.66a14.22,14.22,0,0,0-.8,9.52,4.9,4.9,0,0,1,0,2.12,169.09,169.09,0,0,0-3.63,40.51c0,.71-.06,1.42-.11,2.45,3.33,1.11,3,3.61,1.92,6.38-1.22,3-2.19,6.1-3.68,8.95a11.21,11.21,0,0,1-8.89,6.29,3.91,3.91,0,0,0-2.16,1.33c-1.65,1.9-3.22,3.88-4.7,5.91a2.75,2.75,0,0,1-3,1.28c-4.43-.77-8.85-1.55-13.3-2.18a10.2,10.2,0,0,0-3.35.41c-1.51.3-3,.7-4.89,1.15-.37,1.55-1.27,2.88-3.79,1.44-.49-.28-1.72.36-2.39.86-2.57,1.92-4.83,4.35-7.61,5.83-3.27,1.74-4.94.5-5.46-3.23a4.28,4.28,0,0,0-.23-1.51c-2.3-3.9-2.4-8.18-2.49-12.54-.06-2.52-.86-5-1.1-7.53s-.18-5-.26-7.54c-.12-3.78-.19-7.56-.4-11.33-.09-1.6-.7-3.18-.68-4.76,0-2.18.45-4.35.67-6.53a6.3,6.3,0,0,0,0-1.84,5.58,5.58,0,0,1,2.15-5.35,7.5,7.5,0,0,0-1-.83c-2.19-1.16-2.29-2.37-.27-3.84a4.43,4.43,0,0,1,.46-.29c3.4-2.14,3.39-2.67-.38-5.1,1.77-2.82-.19-6.61,2.48-9.33-.09-5.59,3.59-10.17,4.26-15.39a64.66,64.66,0,0,1,3.17-12c.5-1.54,1.33-3,1.87-4.48a14,14,0,0,0,.49-2.76c.05-.34-.1-.74,0-1,1.3-3.64,2.63-7.28,4.06-11.23-2.09-1.44.55-3.29.55-5.19a43.5,43.5,0,0,1,.71-5.51c.05-.33,0-.75.19-1,2.09-2.75,1.22-5.63-.05-8.18-2.15-4.34-4.73-8.46-7.12-12.67-.51-.89-1-1.79-1.72-3A41.19,41.19,0,0,0,472,39.19c10.47-3.72,19.94-.13,29.43,3.69a17.35,17.35,0,0,0,5.4,1.21c3,.17,5.94,0,8.91-.06,1.46,0,3-.5,3.7,1.65.14.46,1.63.92,2.33.73,5-1.32,7.78.67,9.12,5.56A21.59,21.59,0,0,0,534,58.23c2.6,3.76,1.55,7.5.52,11.35a28.87,28.87,0,0,0-.58,3.82,13.81,13.81,0,0,1-.19,1.84,32.27,32.27,0,0,0-1.51,8.37c0,1.76-1.41,3.46-1.71,5.27a54.15,54.15,0,0,0-.48,7.33C530,98.28,530,98.28,527.73,99.45Zm-48,72.07a7.29,7.29,0,0,0,1.4,0c1.86-.47,3.71-1.05,4.89,1.28a1.48,1.48,0,0,0,1.39.33A35.22,35.22,0,0,0,492,170.9c1.16-.67,1.42-1.64.72-3a6.37,6.37,0,0,1-.28-2.72c0-.71.49-1.69.18-2.08-1.64-2-.42-3.87.16-5.77.15-.49.51-1.14.33-1.49-1.22-2.43,0-4.55.68-6.76.18-.59.66-1.31.47-1.76-1-2.32.47-4.15,1.09-6.14.15-.49.81-1.11.67-1.38-1.08-2.15.35-4,.59-6,.19-1.5.4-3,.5-4.5.2-3.09-.18-6.33.6-9.25,2.23-8.42,4.93-16.71,7.41-25.07a13.15,13.15,0,0,0,.86-4.17A13.8,13.8,0,0,1,507,84.28a88.9,88.9,0,0,0,5.34-15.47c-3.43-3.64-8.05-.8-11.82-3-.7,1.1-1.94,2.17-2,3.32-.35,5.1-3.19,9.67-3,14.87a2.62,2.62,0,0,1-.59,1.74c-1.73,1.87-2.84,3.83-2.56,6.56.43,4.16-2.8,7.3-3.55,11.29a21.74,21.74,0,0,0-.42,6.44c.26,2.33.41,4.46-1.49,6.22a1.9,1.9,0,0,0-.48,1.17c-.19,1.91-.31,3.82-.47,6-2.35-.27-2.37,1.45-2.53,3.07-.13,1.25-.32,2.5-.36,3.76a2.43,2.43,0,0,0,.43,1.67,4.33,4.33,0,0,1-1.59,7.31c0,2.15-.52,4.65.17,6.74a4.57,4.57,0,0,1-.36,3.93,8.75,8.75,0,0,0-.57,6.52,12.92,12.92,0,0,1,.18,5C481,164.72,480.31,168,479.72,171.52Z"/><path d="M139.68,171.39l1.59.89c1.63.93,2.31,2.16,1.47,4-1.82,4-3.24,8.22-5.45,12A15.66,15.66,0,0,1,125.52,196a5.43,5.43,0,0,0-2.73,1.49c-2.47,2.36-4.75,4.93-7.24,7.26a4.79,4.79,0,0,1-3,1.33c-5.48,0-11-.45-16.44-.34-2,.05-4.06,1.2-6.09,1.81-1,.28-2.09.86-2.94.62-7.59-2.22-15.15-4.56-22.69-6.93a24.64,24.64,0,0,1-3.4-1.63,2.72,2.72,0,0,1-1.61-2.8q0-10-.2-19.93c0-1.88.4-3.45,2-4.46,6.71-4.34,13.89-7.59,21.95-8.31a5.44,5.44,0,0,1,6.05,5.44c.06,2.91-.36,5.82-.59,8.93,2,.23,4.94-2.84,6.94,1.37,2.53-1.47,5-2.79,7.29-4.26,1.12-.7,1.37-1.66.57-3a5.33,5.33,0,0,1-.32-2.92c.09-1.18.56-2.08-.52-3.38-.67-.8.18-3,.59-4.53.33-1.25,1.34-2.3.19-3.72-.27-.34.23-1.5.61-2.15a9.89,9.89,0,0,0,1.09-7.23c-1-5.09-1.53-10.28-2.28-15.64-1.44-.11-3-.18-4.46-.33-7.52-.79-13.88-3.65-18.07-10.29-.68-1.08-1.41-2.09-.22-3.39.37-.41.28-1.34.24-2,0-1-.27-2-.38-2.94-.47-4.15,2.14-6.13,6.2-4.72.49.17,1.17.45,1.52.25,2.7-1.52,5.06-.1,7.47.76,1.35.49,2.67,1.08,4,1.65s2.44,1.13,3.95,1.83c.58-1,1.16-2,1.66-3,3.43-6.94,6.89-13.89,7.79-21.73a21.94,21.94,0,0,0-.51-4.86c0-.08-.1-.17-.09-.25.26-2,.38-4,.8-5.92,1.31-5.94,2.74-11.86,4.1-17.73a11,11,0,0,0-8.27-1.43,65.06,65.06,0,0,1-6.61.42,8,8,0,0,0-2,5.23c-.21,3.64-1,7.25-1.48,10.87a2.25,2.25,0,0,0-.07,1c1.36,3.08.38,5.67-1.33,8.33-.62,1-.3,2.52-.45,4.33a4.28,4.28,0,0,1-1.89.06A19.24,19.24,0,0,1,90,87.12C83,82.41,77.52,76,71.87,69.93c.55-1.56,2.16-2.84.45-4.45-.18-.17.06-.86.18-1.28a82.84,82.84,0,0,1,8.88-21.37,3.55,3.55,0,0,1,3.49-1.89,22.79,22.79,0,0,0,13-3.92c1.07-.71,3-.21,4.54-.16a29.89,29.89,0,0,0,4.19.32c4.2-.47,8.38-1.13,12.57-1.72,1.1-.16,2-.21,2.72,1a3.44,3.44,0,0,0,2.67,1.12,50.08,50.08,0,0,0,6.41-.87A2.11,2.11,0,0,1,133.53,38a114.12,114.12,0,0,0,7.7,12.36c3.07,4,2.57,8.16,2,12.55a23.36,23.36,0,0,0,0,3.83,15.07,15.07,0,0,1,.2,2.09c-.25,2.54-1.42,5.33-.71,7.53.91,2.81-1.15,4.83-.66,7.37.56,3,.65,6.06.91,9.09.06.61,0,1.23,0,2l-2.53.73c.78,2.34,1.52,4.53,2.31,6.9-.49.38-1,.84-1.6,1.22A46.76,46.76,0,0,0,128.07,117a3.81,3.81,0,0,0-.47,3.77c2.28,6.43,4.1,13.06,8,18.82.19.28.45.79.34,1-1.5,2.07.36,3.45.92,5.13a26.54,26.54,0,0,1,1.37,5.45c.59,5.18,1,10.39,1.46,15.59C139.78,168.11,139.68,169.52,139.68,171.39Z"/><path d="M539.59,104.35a15.52,15.52,0,0,0-.21-2,11,11,0,0,1,1.19-8.77,15.18,15.18,0,0,0,2-6.11c1.25-11,4.69-21.17,9.35-31.11,1-2.19.71-5.05.83-7.61,0-.71-.41-1.89-1-2.11-2-.82-1.56-2.37-1.56-3.86V29.53c-2.24-1.9-3.09-3.92-1.49-5.41a13.86,13.86,0,0,1,6.11-3.65c5.72-1.15,11.56-1.69,17.37-2.42,2.71-.35,5.23,2.42,5.53,5.11.94,8.6-1.27,16.75-3,25-.4,1.9.13,4,.12,6a19.84,19.84,0,0,1-.36,4.22,34,34,0,0,0-.79,9.61,26.63,26.63,0,0,1-1.12,8c-4.21,16.47-8.59,32.9-12.78,49.38-.71,2.77-1.62,5.52-.6,8.66.58,1.8-.37,4.14-.75,6.22-.34,1.81-1.8,3.41-.42,5.53.48.73-.26,2.24-.42,3.4s-.25,2.27-.42,3.75c2.25-1,4.21-1.72,5.77.26l.68-.17c6.47-1.81,6.22-7.5,5.81-12.09-.37-4.05.76-7.51,1.55-11.16a75.37,75.37,0,0,1,2.58-8.23,11.06,11.06,0,0,0,.7-5.71c-.35-2.1.41-4.45,1-6.62,2.83-11.35,6.19-22.58,8.53-34,2.47-12.08,4.06-24.36,5.87-36.57.21-1.42-.84-3-.86-4.51a53.86,53.86,0,0,1,.56-7c.17-1.33,1.11-2.47-.21-3.93-1-1.07.33-5.65,1.56-6.67q9.69-8,19.43-15.9C612-.94,615.58.76,616,3.17c.51,2.85,1.36,5.66,1.69,8.53a40.8,40.8,0,0,1-.14,6.53c-.28,5.93-.65,11.86-.82,17.8a15.92,15.92,0,0,0,.69,5.18c.53,1.72,0,2.4-1.76,2.38a13.62,13.62,0,0,0,.49,1.78,9.18,9.18,0,0,1-.16,8.69,14.8,14.8,0,0,0-1.22,7.59,32.34,32.34,0,0,1-2.9,15.72q-6.87,15.1-13.4,30.37a24.86,24.86,0,0,0-1.33,6.81c-.17,1.41,0,2.89,1.68,3.64a1.58,1.58,0,0,1,.65,1.28c-.54,4.9-1.14,9.8-1.75,14.9,2.47,2.43,2.59,2.47,1.13,6.33s-3.09,7.87-4.93,11.67a11.43,11.43,0,0,1-6.71,6.3,4.3,4.3,0,0,0-1.84,1.48c-2.35,3-4.57,6-7,8.94a3.93,3.93,0,0,1-2.49,1.48c-4.13.14-8.27-.12-12.39.1-1.7.09-3.33,1.08-5,1.56a7.5,7.5,0,0,1-2.92.46,16,16,0,0,1-4.12-1.23c-2.08-.91-4-1.91-6.34-.57a2.29,2.29,0,0,1-2.19-.25c-2-2.78-5.12-3.57-8-4.72-3.68-1.46-4-1.55-3.54-5.48,1.06-8.74,2.42-17.45,3.59-26.18a46.61,46.61,0,0,0,.1-4.73c.05-1.15.16-2.29.26-3.43.19-2.06.29-4.14.64-6.17s1.15-3.94,1.41-6a28.93,28.93,0,0,0,.19-6.83C537.37,105.42,537.88,104.61,539.59,104.35Z"/><path d="M403.16,184.85c-2,.52-2.3,2.18-2.34,4.11-.05,2.86-.29,5.72-.46,8.74l-5.37.7c3.95,1.47,4,1.47,3.52,5.86a26.34,26.34,0,0,1-.35,2.67c-.45,2.15-1.23,2.56-3.35,2a9.72,9.72,0,0,0-2-.14c-1-4.36-1.85-8.75-3-13.08C387.11,185.56,383,176,378.59,166.5a21.71,21.71,0,0,0-4-5.36,5.06,5.06,0,0,1-1.35-4.38c1-10.17,3.72-20,6.23-29.82.76-3,1.58-5.91,2.16-8.91a18.7,18.7,0,0,0,0-4.16c0-.26-.29-.63-.19-.76,1.78-2.52,0-5.6,1.43-8.29.66-1.27.25-3.09.29-4.67,0-.53-.3-1.13-.13-1.57A15.63,15.63,0,0,0,384,90.14a2.71,2.71,0,0,1,.48-1.51c4-7,3-14.1.45-21.33a83.55,83.55,0,0,1-2.53-10.89,10.56,10.56,0,0,1,.41-3.1c-3.92-5.26-5.43-12-7.68-18.41-.63-1.82-1.81-3.44-2.51-5.24-1.49-3.85-2.9-7.73-4.15-11.66-.18-.57.58-1.64,1.16-2.21A11.31,11.31,0,0,1,378,12.43c6.37.16,12.73.76,19.08,1.32.53.05,1.19,1.09,1.38,1.78a12,12,0,0,1,0,2.68c.17,4.32.79,5.53,3.35,7.45a58.51,58.51,0,0,0,.39,6.67c1.7,9.28,3.54,18.54,5.43,28.35.43-1,.69-1.59.94-2.18,5.67-13,11.31-26.08,17-39.08a2.9,2.9,0,0,1,1.95-1.58c2.49-.08,5.19-.38,7.43.44a14.41,14.41,0,0,0,6.79.92,7.68,7.68,0,0,1,6.31,1.65c.48.41,1.42.35,2.16.41,1.24.08,2.5,0,3.73.16a1.49,1.49,0,0,1,1.08.9,1.49,1.49,0,0,1-.81,1.16c-2.51.8-3.54,3-4.63,5-.44.82-.28,2-.47,2.93a7.73,7.73,0,0,1-.6,2C445,40.7,441.44,48,435.47,53.76a3,3,0,0,0-.73,1.09c-3.7,10.43-9.64,19.7-15,29.26q-1.26,2.23-2.58,4.43a14.12,14.12,0,0,0-2.2,7.19c-.08,3.52-1.39,7-2.05,10.53-.23,1.21.19,2.57-.15,3.71-2.16,7.14-4.46,14.23-6.69,21.34a2.8,2.8,0,0,0-.18,1.73,3.56,3.56,0,0,1-.22,4.05c-.19.25,0,.83.07,1.26.08,1.05.56,2.29.18,3.14-1.82,4.07-.47,8.4-1.25,12.56s-1,8.4-1.38,12.61c-.3,3.22-.66,6.46-.7,9.69C402.55,179,402.93,181.73,403.16,184.85Zm-2.56-53.17-.39-.81-4.72,2.19c.13.29.27.58.41.88Zm-14.74,4.86-.27.75,2,.32.1-.4Z"/><path d="M705.42,182.27a16.92,16.92,0,0,0,17.11-1,3.83,3.83,0,0,1,1.68-.51c1.92-.16,3.84-.3,5.76-.32,3.75-.05,7.5,0,11.4,0,1,3.81-.7,6.58-2.28,9.58L735,188.26a73.39,73.39,0,0,1-5.69,6.62,62.47,62.47,0,0,1-7.31,5.48,7.33,7.33,0,0,1-5.28,1c-2.1-.22-4.35,1.19-6.56,1.81a14.73,14.73,0,0,1-2.95.46c-.69,0-1.45-.33-2.1-.17-5.78,1.34-11.54,2.76-17.29,4.19a8.65,8.65,0,0,0-1.53.72v2.44c-3,0-1.82-3-3.35-4.1-4,2.23-6.44,7.25-12.08,7.3-.45-1.63-.92-3.31-1.49-5.4.91-2,3.1-2.76,5.56-3.75a10.1,10.1,0,0,0-2.24-.9c-1.72-.25-2-1.25-1.7-2.7a23.47,23.47,0,0,0,.78-3.13c1-11.35,6.78-21.09,10.41-31.55,3.48-10,6.85-20.08,10.28-30.12a10.79,10.79,0,0,1,1.25-2.95c7.16-9.46,12.26-20.1,17.42-30.7,1.38-2.83,2.54-5.76,4-8.56,1.68-3.25,3.64-6.36,5.32-9.61a42.16,42.16,0,0,0,2.93-6.9c.36-1.16-.1-2.58-.23-4.49-.52,0-1.62-.33-2.34.06-2.58,1.41-5,1.23-7.7.28-1.72-.6-3.74-.3-5.78,0-4.37-4.85-8.56-10.07-10.22-16.85-.67-2.74.43-5,1.94-7a3.31,3.31,0,0,1,2.3-1.07,9.23,9.23,0,0,1,4.25.47c2.65,1.32,5.23.72,7.91.48a18.37,18.37,0,0,1,4.15.62,20.23,20.23,0,0,0,2.57.3c3.39.06,6.8,0,10.19.18.7,0,1.35,1,2,1.46,2.08-.91,4.23-2,6.51-2.77,1.21-.4,3-.66,3.91-.08,2.34,1.45,4.64.95,7,.73.71-.07,1.73-.34,2.09,0,2.4,2.31,5.39,1.55,8.23,1.61l.48.58A14.26,14.26,0,0,1,759.19,54c-2.39,2.26-4.3,4.71-4.09,8.28a5.62,5.62,0,0,1-.65,2.3c-3.2,7.63-6.32,15.31-11.64,21.82a2.7,2.7,0,0,0-.53.93c-3.33,11.4-9.5,21.53-14.43,32.21-1.42,3.08-2.29,6.42-3.59,9.56-2.27,5.49-4.4,11.06-7.09,16.33-5.76,11.27-8.12,23.6-11.74,35.54A6.63,6.63,0,0,0,705.42,182.27Zm-15.87-18.09-.19.54c3.29,2.26,3.29,2.26,4.16,1.34Zm11,6.68c0-.24-.09-.48-.13-.73l-2,.47.08.5Z"/><path d="M26.65,136.56c.26.79,1,1.78.72,2.33a10.15,10.15,0,0,0-.8,5.25c.15,2.8-.76,5.67-1.3,8.49-.25,1.35-.57,2.41.89,3.51s1,2.68.3,4.21c-.89,2.05-1.59,4.18-2.33,6.29a1.85,1.85,0,0,0,1.68,2.73c5.46.21,11,.63,15.61-3.18l15.15.58c.85,4.3-1.18,7.26-2.9,10.62l-3.56-2c-.56.79-1.08,1.5-1.58,2.22a34.92,34.92,0,0,1-10.4,10.07c-1.72,1.07-3.22,2-5.68,1.2-1.45-.48-3.67,1-5.4,1.85-1.14.57-2,1.41-3.39.56-.48-.29-1.37,0-2,.18-5.74,1.45-11.47,2.94-17.44,4.48A7.6,7.6,0,0,1,4,197.71a5.1,5.1,0,0,1-.92,1.36c-.33-.44-.9-.85-.94-1.31-.12-1.59,0-3.19,0-5a5.51,5.51,0,0,1-1.41-1.23A3.46,3.46,0,0,1,0,189.29c.59-2.36,2.24-4.57.58-7.16-.19-.29.28-1,.41-1.5s.61-1.47.36-1.8c-1.76-2.4-.28-4.83-.26-7.24a5.38,5.38,0,0,0-.21-2.39c-1.2-2.38-.62-4.68-.07-7.06,1-4.21,1.75-8.46,2.68-12.67a7.16,7.16,0,0,0-.76-5.95,5.45,5.45,0,0,1-.62-4.88c1.14-3.88,2.24-7.77,3.36-11.65.17-.6.6-1.26.46-1.78-1.57-5.87.24-11.54.94-17.28.33-2.67,1.11-5.4.83-8A38.15,38.15,0,0,1,8.12,87.8,66.15,66.15,0,0,1,10,81.06c.7-2.2,2-4.3.74-6.7a1,1,0,0,1,0-.53c.41-2.87.7-5.76,1.28-8.6.66-3.2.55-6.2-1.25-9a1.7,1.7,0,0,1-.34-1c.85-5.23-1.48-9.9-2.66-14.76-.41-1.67-.18-2.71,1.42-3.48,2.41-1.16,4.77-2.43,7.12-3.7a8.29,8.29,0,0,0,1.19-1C20.65,29.57,23.89,27,27,24.27c1.83-1.62,4.92-1.2,6.07-3.87.06-.13.5-.14.76-.14h8.89c0,1.25.05,2,0,2.79C41.92,33,41.28,43,40.22,52.89c-.32,3-2.77,5.33-4.18,8-.43.83-1.13,2.1-.81,2.64,1.94,3.31.5,7,1.31,10.35.08.33.12.85-.06,1-2.55,2.43-2.58,5.88-3.4,8.92s-.89,6.39-1.17,9.61c-.55,6.36-.91,12.74-1.6,19.08-.28,2.55-1.66,5-1.76,7.53-.13,3.5-1.57,6.81-.91,10.47.33,1.82-1,3.93-1.56,5.91Z"/></g></g></svg>